<svg xmlns="http://www.w3.org/2000/svg" aria-hidden="true"
  style="position:absolute;width:0;height:0;overflow:hidden">
  <defs>
    <symbol id="icon-logo" viewBox="0 0 32 32">
      <path
        d="m18.275 11.191.596.437a.367.367 0 0 1 .157.261.346.346 0 0 1-.103.285l-3.523 3.791c-.037.041-.089.068-.145.074s-.113-.008-.16-.039l-.137-.096a.24.24 0 0 0-.292 0l-1.903 1.694c1.351-.16 2.69-.402 4.011-.724a18.751 18.751 0 0 0 5.971-2.686s.537 1.197.15 1.638c-1.615 1.882-9.129 3.538-11.672 3.139l-1.714 1.516-.127-.135 1.364-1.503a.827.827 0 0 1-.231-.134 4.16 4.16 0 0 1-.237-.908 34.343 34.343 0 0 0 1.505-.1l5.85-6.447c.076-.089.186-.145.305-.156s.239.023.332.095zm-6.863 7.036a.283.283 0 0 0-.017.262.295.295 0 0 0 .114.133c.051.033.111.05.172.05a.321.321 0 0 0 .22-.085.291.291 0 0 0 .089-.211.287.287 0 0 0-.011-.077l-.003.003c-.019-.061-.059-.114-.112-.152s-.118-.058-.184-.058a.324.324 0 0 0-.268.136zM15.342 5.834l.724.948.351-.013-.758-1.008c.202-.066.378-.195.503-.366a.99.99 0 0 0 .16-.603.935.935 0 0 0-.355-.75 1.378 1.378 0 0 0-.919-.246l-1.153.004.1 3.017h.321l-.03-.957.815-.026c.081.004.162.004.243 0zm.597-.727a.682.682 0 0 1-.177.257 1.045 1.045 0 0 1-.68.22l-.806.026-.052-1.508.823-.03c.24-.02.481.042.68.177a.703.703 0 0 1 .256.552.688.688 0 0 1-.044.308zm-2.753 1.617.065.271-2.088.487-.693-2.939 2.028-.47.061.267-1.733.401.247 1.043 1.525-.358.065.267-1.529.353.26 1.09 1.794-.414zm-5.42-1.12-.29.129 1.257 2.745 1.837-.832-.113-.25-1.547.698-1.144-2.491zM4.746 7.53l.26-.194 1.651 2.198 1.361-1.013.165.22-1.616 1.202-1.82-2.413zm-.724 4.12 1.01-1.34.867.181.204-.267-3.263-.698-.186.254 1.603 2.909.199-.267-.433-.771zM3.013 9.853l1.733.388-.867 1.159-.867-1.547zm-.364 2.87-.069.297.992.25c.105.262.123.55.052.823a1.35 1.35 0 0 1-.303.608 1.266 1.266 0 0 1-.542.349 1.224 1.224 0 0 1-.663 0 1.23 1.23 0 0 1-.594-.315 1.183 1.183 0 0 1-.334-.547 1.34 1.34 0 0 1-.013-.677 1.243 1.243 0 0 1 .572-.836l-.156-.237a1.26 1.26 0 0 0-.433.401 1.84 1.84 0 0 0-.247.595c-.078.282-.078.58 0 .862.07.26.213.494.412.677.202.19.452.321.724.379.271.062.553.051.819-.03a1.49 1.49 0 0 0 .667-.431c.188-.213.317-.472.373-.75.047-.2.061-.407.039-.612a1.453 1.453 0 0 0-.169-.552l-1.127-.254zm15.805-6.692-.156 1.03-.316-.047.16-1.013-.897-2.155.338.052.767 1.836 1.3-1.521.303.065-1.499 1.754zm4.662.306-.377-.487.594-.069V5.57l-.624.086.221-.577-.186-.078-.234.569-.334-.491-.169.129.381.487-.615.069v.207l.624-.082-.243.565.182.078.238-.565.377.5.165-.129zm1.07 2.986A1.194 1.194 0 0 1 24 8.802l.256-.112c.019.171.075.335.165.483.097.165.223.311.373.431.154.147.352.242.563.271a.482.482 0 0 0 .408-.168.382.382 0 0 0 .099-.293.787.787 0 0 0-.104-.297 4.751 4.751 0 0 0-.264-.384 3.914 3.914 0 0 1-.312-.474.862.862 0 0 1-.113-.405c0-.16.06-.314.169-.431a.79.79 0 0 1 .36-.246.874.874 0 0 1 .481 0c.202.066.39.171.55.31.133.11.251.238.351.379.092.131.161.277.204.431l-.247.129a1.488 1.488 0 0 0-.191-.405 1.54 1.54 0 0 0-.29-.297.967.967 0 0 0-.559-.263.473.473 0 0 0-.407.176.365.365 0 0 0-.1.293c.01.109.046.213.104.306.061.099.147.228.264.384.116.147.22.302.312.465a.86.86 0 0 1 .117.405c0 .16-.06.314-.169.431a.774.774 0 0 1-.364.246.838.838 0 0 1-.481 0 1.625 1.625 0 0 1-.555-.31 1.94 1.94 0 0 1-.433-.534zm3.748-.233.611.862-2.257 1.586.182.263 2.262-1.573.611.862.225-.159-1.408-2-.225.159zm-.36 4.405a1.43 1.43 0 0 1 .433-.672 1.54 1.54 0 0 1 .711-.358c.269-.062.55-.051.815.03.255.084.483.232.663.431.187.214.314.472.368.75a1.63 1.63 0 0 1 0 .832 1.468 1.468 0 0 1-.433.672 1.614 1.614 0 0 1-1.547.337 1.456 1.456 0 0 1-.663-.431 1.605 1.605 0 0 1-.368-.746 1.647 1.647 0 0 1 .022-.845zm.568 1.37c.145.164.332.285.542.349a1.345 1.345 0 0 0 1.257-.276c.16-.146.278-.332.342-.539a1.385 1.385 0 0 0-.282-1.267 1.233 1.233 0 0 0-.559-.349 1.3 1.3 0 0 0-.667 0 1.194 1.194 0 0 0-.589.297c-.161.147-.28.335-.342.543a1.283 1.283 0 0 0 0 .668c.047.214.151.411.299.573zm.225 3.202-1.122.431-.082.323 1.196-.431c.001.213.075.419.21.584s.322.28.531.325a.946.946 0 0 0 .823-.12c.258-.199.436-.483.503-.802l.295-1.09-2.929-.78-.082.306.919.237-.212.78-.008.03-.004.013c-.018.066-.036.13-.036.194zm.532.788a.763.763 0 0 1-.202-.236 1.035 1.035 0 0 1-.013-.711l.208-.776 1.469.392-.208.776c-.047.24-.177.455-.368.608a.792.792 0 0 1-.606.087.762.762 0 0 1-.279-.139zm-3.21 2.418-.221-.168 1.3-1.702 2.418 1.823-1.257 1.651-.221-.168 1.062-1.392-.867-.651-.949 1.245-.217-.164.971-1.245-.897-.677-1.122 1.448zm-1.633 3.47.62-.034-.316.521.182.103.286-.56.329.517.169-.108-.334-.513h.628v-.211l-.62.034.295-.543-.186-.099-.269.577-.329-.517-.169.108.334.513-.62.004v.207zm-5.013-.38.524.289a1.355 1.355 0 0 1 .867-.681c.172-.053.353-.072.533-.056a.863.863 0 0 1 .433.155.69.69 0 0 1 .243.345.76.76 0 0 1-.026.517 2.153 2.153 0 0 1-.433.599c.143.076.275.17.394.28a.748.748 0 0 1 .178.297.565.565 0 0 1-.113.504.831.831 0 0 1-.485.332.753.753 0 0 1-.537 0 .536.536 0 0 1-.312-.367.585.585 0 0 1 .03-.431c.099-.196.23-.375.386-.53l-1.044-.577c-.04.203-.049.411-.026.616h-.264a2.05 2.05 0 0 1 .087-.75l-.546-.302.113-.241zm.754.431 1.148.634a1.81 1.81 0 0 0 .368-.496.54.54 0 0 0 0-.388.471.471 0 0 0-.304-.323.878.878 0 0 0-.555 0 1.039 1.039 0 0 0-.676.561l.017.013zm1.629 1.724a.395.395 0 0 0 .035-.319.53.53 0 0 0-.139-.224 1.837 1.837 0 0 0-.36-.237 2.26 2.26 0 0 0-.342.431.432.432 0 0 0-.035.319.373.373 0 0 0 .191.229.49.49 0 0 0 .342 0 .51.51 0 0 0 .29-.203l.017.004zm-7.604-1.849-.061 3.017.264.004 1.348-2.211 1.274 2.254h.264l.056-3.017h-.308l-.043 2.4-1.153-2.043h-.152l-1.231 2.008.048-2.413h-.308zm-1.568-.138a1.464 1.464 0 0 1 .395 1.491 1.521 1.521 0 0 1-.412.702c-.193.188-.434.32-.698.379a1.7 1.7 0 0 1-.841-.026 1.628 1.628 0 0 1-.728-.392 1.443 1.443 0 0 1-.403-.681A1.58 1.58 0 0 1 10 24.487c.189-.188.426-.322.685-.388a1.68 1.68 0 0 1 .836.026c.275.069.528.209.732.405zm-1.477-.15a1.161 1.161 0 0 0-.559.31 1.24 1.24 0 0 0-.329.573c-.06.216-.06.444 0 .659.051.21.161.401.316.552.163.159.365.273.585.332.22.056.451.056.672 0 .212-.052.407-.159.563-.31.159-.159.272-.357.329-.573a1.228 1.228 0 0 0 0-.664 1.202 1.202 0 0 0-.321-.552 1.304 1.304 0 0 0-.589-.328 1.258 1.258 0 0 0-.667 0zm-3.163-.819-.117-1.185-.308-.198.126 1.267a1.01 1.01 0 0 0-.624.047.99.99 0 0 0-.455.431.952.952 0 0 0-.096.819c.128.299.358.544.65.69l.988.565 1.516-2.599-.282-.159-.477.836-.706-.405a2.087 2.087 0 0 0-.217-.108zm-.892.31a.793.793 0 0 1 .281-.134v-.022c.25-.013.497.062.698.211l.698.401-.758 1.293-.698-.401a1.06 1.06 0 0 1-.498-.513.763.763 0 0 1 .278-.836zm-1.79-3.517.195-.194 1.495 1.53-2.166 2.103-1.443-1.482.199-.194 1.226 1.254.741-.746-1.075-1.112.208-.198 1.096 1.12.806-.78-1.283-1.301zm-3.115-2.288-.104.595-.468-.405-.143.155.481.401-.581.203.065.168.581-.207-.121.612.208.039.108-.612.464.431.139-.155-.481-.405.585-.198-.069-.19-.576.211.117-.612-.204-.03z" />
    </symbol>
    <symbol id="icon-facebook" viewBox="0 0 32 32">
      <path
        d="M21.33 5.313h2.921V.225C23.747.156 22.014 0 19.995 0c-4.212 0-7.097 2.649-7.097 7.519V12H8.25v5.688h4.648V32h5.699V17.689h4.46l.708-5.688h-5.169V8.082c.001-1.644.444-2.769 2.735-2.769z" />
    </symbol>
    <symbol id="icon-instagram" viewBox="0 0 32 32">
      <path
        d="M31.969 9.408c-.075-1.7-.35-2.869-.744-3.882a7.806 7.806 0 0 0-1.851-2.838A7.867 7.867 0 0 0 26.542.844C25.523.45 24.36.175 22.66.1 20.947.019 20.403 0 16.059 0s-4.888.019-6.595.094c-1.7.075-2.869.35-3.882.744a7.803 7.803 0 0 0-2.838 1.85A7.867 7.867 0 0 0 .9 5.52C.506 6.539.231 7.702.156 9.402c-.081 1.713-.1 2.257-.1 6.601s.019 4.888.094 6.595c.075 1.7.35 2.869.744 3.882a7.895 7.895 0 0 0 1.85 2.838 7.867 7.867 0 0 0 2.832 1.844c1.019.394 2.182.669 3.882.744 1.706.075 2.25.094 6.595.094s4.888-.019 6.595-.094c1.7-.075 2.869-.35 3.882-.744a8.184 8.184 0 0 0 4.682-4.682c.394-1.019.669-2.182.744-3.882.075-1.707.094-2.251.094-6.595s-.006-4.888-.081-6.595zm-2.882 13.065c-.069 1.563-.331 2.407-.55 2.969a5.31 5.31 0 0 1-3.038 3.038c-.563.219-1.413.481-2.969.55-1.688.075-2.194.094-6.464.094s-4.782-.019-6.464-.094c-1.563-.069-2.407-.331-2.969-.55a4.926 4.926 0 0 1-1.838-1.194 4.974 4.974 0 0 1-1.194-1.838c-.219-.563-.481-1.413-.55-2.969-.075-1.688-.094-2.194-.094-6.464s.019-4.782.094-6.464c.069-1.563.331-2.407.55-2.969a4.868 4.868 0 0 1 1.2-1.838A4.974 4.974 0 0 1 6.639 3.55c.563-.219 1.413-.481 2.969-.55 1.688-.075 2.194-.094 6.464-.094 4.276 0 4.782.019 6.464.094 1.563.069 2.407.331 2.969.55a4.914 4.914 0 0 1 1.838 1.194 4.974 4.974 0 0 1 1.194 1.838c.219.563.481 1.413.55 2.969.075 1.688.094 2.194.094 6.464s-.019 4.77-.094 6.458z" />
      <path
        d="M16.059 7.783c-4.538 0-8.22 3.682-8.22 8.22s3.682 8.22 8.22 8.22c4.539 0 8.22-3.682 8.22-8.22s-3.682-8.22-8.22-8.22zm0 13.552a5.333 5.333 0 0 1 0-10.664 5.333 5.333 0 0 1 0 10.664zM26.524 7.458a1.919 1.919 0 1 1-3.838 0 1.919 1.919 0 0 1 3.838 0z" />
    </symbol>
    <symbol id="icon-linkedin" viewBox="0 0 32 32">
      <path
        d="M31.992 32v-.001H32V20.263c0-5.741-1.236-10.164-7.948-10.164-3.227 0-5.392 1.771-6.276 3.449h-.093v-2.913h-6.364v21.364h6.627V21.42c0-2.785.528-5.479 3.977-5.479 3.399 0 3.449 3.179 3.449 5.657v10.401h6.62zM.528 10.636h6.635V32H.528V10.636zM3.843 0C1.722 0 0 1.721 0 3.843s1.721 3.879 3.843 3.879c2.121 0 3.843-1.757 3.843-3.879A3.846 3.846 0 0 0 3.843 0z" />
    </symbol>
    <symbol id="icon-twitter" viewBox="0 0 32 32">
      <path
        d="M32 6.078c-1.19.522-2.458.868-3.78 1.036a6.523 6.523 0 0 0 2.886-3.626 13.11 13.11 0 0 1-4.16 1.588A6.574 6.574 0 0 0 22.154 3c-3.632 0-6.556 2.948-6.556 6.562 0 .52.044 1.02.152 1.496-5.454-.266-10.28-2.88-13.522-6.862a6.605 6.605 0 0 0-.898 3.316 6.57 6.57 0 0 0 2.914 5.452 6.479 6.479 0 0 1-2.964-.808v.072c0 3.188 2.274 5.836 5.256 6.446a6.548 6.548 0 0 1-1.72.216 5.8 5.8 0 0 1-1.242-.112c.85 2.598 3.262 4.508 6.13 4.57a13.182 13.182 0 0 1-8.134 2.798c-.538 0-1.054-.024-1.57-.09A18.469 18.469 0 0 0 10.064 29c12.072 0 18.672-10 18.672-18.668 0-.29-.01-.57-.024-.848A13.087 13.087 0 0 0 32 6.078z" />
    </symbol>
    <symbol id="icon-home" viewBox="0 0 32 32">
      <path d="M32 18.451 16 6.031 0 18.451v-5.064L16 .967l16 12.42zM28 18v12h-8v-8h-8v8H4V18l12-9z" />
    </symbol>
    <symbol id="icon-home2" viewBox="0 0 32 32">
      <path
        d="M16 1 0 17l3 3 3-3v13h8v-6h4v6h8V17l3 3 3-3L16 1zm0 13a2 2 0 1 1-.001-3.999A2 2 0 0 1 16 14z" />
    </symbol>
    <symbol id="icon-home3" viewBox="0 0 32 32">
      <path d="m32 19-6-6V4h-4v5l-6-6L0 19v1h4v10h10v-6h4v6h10V20h4z" />
    </symbol>
    <symbol id="icon-office" viewBox="0 0 32 32">
      <path
        d="M0 32h16V0H0v32zM10 4h4v4h-4V4zm0 8h4v4h-4v-4zm0 8h4v4h-4v-4zM2 4h4v4H2V4zm0 8h4v4H2v-4zm0 8h4v4H2v-4zm16-10h14v2H18zm0 22h4v-8h6v8h4V14H18z" />
    </symbol>
  </defs>
</svg>